<?xml version="1.0" standalone="no"?>
<!DOCTYPE svg PUBLIC "-//W3C//DTD SVG 20010904//EN"
 "http://www.w3.org/TR/2001/REC-SVG-20010904/DTD/svg10.dtd">
<svg version="1.0" xmlns="http://www.w3.org/2000/svg"
 width="1018.000000pt" height="731.000000pt" viewBox="0 0 1018.000000 731.000000"
 preserveAspectRatio="xMidYMid meet">

<g transform="translate(0.000000,731.000000) scale(0.100000,-0.100000)"
fill="#000000" stroke="none">
<path d="M2346 6338 c-22 -30 -20 -61 4 -83 41 -37 110 -9 110 45 0 56 -82 83
-114 38z m93 -20 c14 -24 14 -28 -3 -47 -26 -29 -62 -27 -82 4 -15 23 -15 27
0 51 23 33 64 30 85 -8z"/>
<path d="M6120 4596 c-65 -18 -100 -39 -156 -89 -122 -110 -156 -282 -85 -433
39 -83 87 -134 164 -173 211 -107 459 -6 532 217 12 36 16 75 14 134 -7 149
-78 254 -216 320 -74 35 -181 45 -253 24z m39 -245 l59 -59 58 59 c62 63 87
72 105 38 10 -19 4 -28 -50 -83 l-62 -63 61 -62 c33 -34 60 -65 60 -68 0 -11
-33 -43 -44 -43 -7 0 -38 27 -71 60 l-59 60 -63 -62 c-53 -53 -66 -61 -81 -52
-33 21 -25 45 34 105 l58 59 -57 58 c-58 58 -67 78 -45 100 21 21 36 14 97
-47z"/>
<path d="M9346 4271 c-25 -27 -17 -70 17 -95 26 -19 30 -19 55 -5 62 34 47
119 -22 119 -20 0 -40 -8 -50 -19z m90 -16 c15 -23 15 -27 0 -50 -19 -29 -51
-32 -78 -8 -22 20 -23 41 -1 65 23 26 59 23 79 -7z"/>
<path d="M4470 1005 l0 -374 -368 -3 -367 -3 -67 -33 c-108 -53 -177 -147
-201 -272 l-12 -60 -1422 0 c-942 0 -1423 -3 -1423 -10 0 -7 1540 -10 4600
-10 3050 0 4600 3 4600 10 0 7 -524 11 -1537 12 l-1538 3 -6 53 c-14 110 -109
235 -216 285 -46 21 -64 22 -418 27 l-370 5 -3 373 -2 372 -625 0 -625 0 0
-375z"/>
<path d="M0 250 c0 -6 82 -10 226 -10 147 0 223 3 219 10 -8 14 -445 14 -445
0z"/>
</g>
</svg>
